<svg width="200" height="200" viewBox="0 0 200 200" fill="none" xmlns="http://www.w3.org/2000/svg">
<g clip-path="url(#clip0_2019_2)">
<path d="M0 100H199C199 154.952 154.452 200 99.5 200C44.5477 200 0 154.952 0 100Z" fill="#164685"/>
<path d="M199 100H0C0 45.0477 44.5477 0 99.5 0C154.452 0 199 45.0477 199 100Z" fill="#164685"/>
<path d="M99.5 1C153.895 1 198 45.3191 198 100C198 154.681 153.895 199 99.5 199C45.1047 199 1 154.681 1 100C1 45.3191 45.1047 1 99.5 1Z" stroke="#97999B" stroke-width="2"/>
<path d="M4.41333 92.8667C28.0871 92.8667 28.1762 107.133 52.0729 107.133C75.9696 107.133 76.0142 92.8667 100 92.8667C123.986 92.8667 123.986 107.133 147.972 107.133C171.957 107.133 171.913 92.9558 195.631 92.8667M16.0496 53.6779C29.0679 57.3337 32.9021 66.4733 52.0729 66.4733C76.0142 66.4733 76.0142 52.2067 99.9554 52.2067C123.897 52.2067 123.941 66.4733 147.927 66.4733C167.098 66.4733 170.932 57.3337 183.95 53.6779M10.2983 133.883C28.1317 136.113 30.3608 147.793 52.0729 147.793C76.0142 147.793 76.0142 133.527 99.9554 133.527C123.897 133.527 123.941 147.793 147.927 147.793C169.639 147.793 171.69 136.068 189.702 133.883" stroke="#ADA3A3" stroke-width="1.5" stroke-linecap="round" stroke-linejoin="round"/>
<path d="M163.289 138.727V146.588H145.926V158.072C145.926 162.219 146.974 164.931 149.07 166.207C151.167 167.483 153.947 168.121 157.41 168.121H159.256V174H117.078V168.121H121.043C124.552 168.121 127.332 167.483 129.383 166.207C131.479 164.931 132.527 162.219 132.527 158.072V146.588H89.3926V140.846L132.664 74.0586H145.926V138.727H163.289ZM99.4414 138.727H132.527V112.818C132.527 110.494 132.55 107.532 132.596 103.932C132.687 100.286 132.801 96.64 132.938 92.9941C133.12 89.3027 133.302 86.2493 133.484 83.834C133.029 84.6999 132.186 86.2266 130.955 88.4141C129.725 90.6016 128.654 92.5156 127.742 94.1562C127.286 94.931 126.58 96.1159 125.623 97.7109C124.666 99.306 123.732 100.855 122.82 102.359C121.909 103.818 121.271 104.82 120.906 105.367L99.4414 138.727Z" fill="#ACC7F0"/>
<path d="M34.4258 94.9121C34.4258 91.5397 34.9499 88.5775 35.998 86.0254C37.0918 83.4733 38.5957 81.2174 40.5098 79.2578C42.4238 77.2526 44.6797 75.4753 47.2773 73.9258C49.875 72.3307 52.7005 70.804 55.7539 69.3457C53.1107 67.8418 50.6725 66.224 48.4395 64.4922C46.2064 62.7148 44.2923 60.778 42.6973 58.6816C41.1022 56.5853 39.849 54.3066 38.9375 51.8457C38.0716 49.3392 37.6387 46.6276 37.6387 43.7109C37.6387 40.4753 38.2083 37.3535 39.3477 34.3457C40.487 31.3379 42.2643 28.6719 44.6797 26.3477C47.0951 24.0234 50.2168 22.1549 54.0449 20.7422C57.9186 19.3294 62.5443 18.623 67.9219 18.623C72.2969 18.623 76.1934 19.2383 79.6113 20.4688C83.0293 21.6536 85.9232 23.3171 88.293 25.459C93.0781 29.8796 95.4707 35.6445 95.4707 42.7539C95.4707 45.8073 95.015 48.4961 94.1035 50.8203C93.1921 53.099 91.916 55.1725 90.2754 57.041C88.6348 58.8639 86.6523 60.5273 84.3281 62.0312C82.0039 63.5352 79.429 64.9935 76.6035 66.4062C80.0671 68.0469 83.2116 69.8014 86.0371 71.6699C88.9082 73.5384 91.3691 75.5664 93.4199 77.7539C95.4707 79.9414 97.043 82.3112 98.1367 84.8633C99.276 87.4154 99.8457 90.2181 99.8457 93.2715C99.8457 97.6921 99.0482 101.657 97.4531 105.166C95.8581 108.63 93.6022 111.569 90.6855 113.984C84.8066 118.906 76.6491 121.367 66.2129 121.367C60.972 121.367 56.3691 120.684 52.4043 119.316C48.485 117.904 45.181 116.012 42.4922 113.643C37.1146 108.812 34.4258 102.568 34.4258 94.9121ZM83.0293 42.4121C83.0293 37.7181 81.7533 33.6849 79.2012 30.3125C76.6491 26.9401 72.5931 25.2539 67.0332 25.2539C61.929 25.2539 57.9414 26.8262 55.0703 29.9707C52.2448 33.0697 50.832 37.0801 50.832 42.002C50.832 46.8327 52.4271 50.9115 55.6172 54.2383C57.2122 55.8789 59.1719 57.4284 61.4961 58.8867C63.8659 60.2995 66.6003 61.735 69.6992 63.1934C74.7578 60.6413 78.2441 57.8158 80.1582 54.7168C82.0723 51.6178 83.0293 47.5163 83.0293 42.4121ZM66.8965 114.941C69.9499 114.941 72.707 114.486 75.168 113.574C77.6745 112.617 79.8164 111.318 81.5938 109.678C85.2396 106.26 87.0625 101.816 87.0625 96.3477C87.0625 91.6536 85.2168 87.4837 81.5254 83.8379C79.5658 81.9694 77.0137 80.1465 73.8691 78.3691C70.7702 76.5462 66.9648 74.6549 62.4531 72.6953C58.0326 75.0651 54.5234 78.1413 51.9258 81.9238C49.3281 85.7064 48.0293 90.2409 48.0293 95.5273C48.0293 101.406 49.6243 106.077 52.8145 109.541C56.1413 113.141 60.8353 114.941 66.8965 114.941Z" fill="#ACC7F0"/>
</g>
<defs>
<clipPath id="clip0_2019_2">
<rect width="200" height="200" fill="white"/>
</clipPath>
</defs>
</svg>
