<svg width="200" height="200" viewBox="0 0 200 200" fill="none" xmlns="http://www.w3.org/2000/svg">
<g clip-path="url(#clip0_2019_2)">
<ellipse cx="99.5" cy="100" rx="99.5" ry="100" fill="url(#paint0_linear_2019_2)"/>
<path d="M99.5 1C153.895 1 198 45.3191 198 100C198 154.681 153.895 199 99.5 199C45.1047 199 1 154.681 1 100C1 45.3191 45.1047 1 99.5 1Z" stroke="#97999B" stroke-width="2"/>
<path d="M4.41333 92.8667C28.0871 92.8667 28.1762 107.133 52.0729 107.133C75.9696 107.133 76.0142 92.8667 100 92.8667C123.986 92.8667 123.986 107.133 147.972 107.133C171.957 107.133 171.913 92.9558 195.631 92.8667M16.0496 53.6779C29.0679 57.3337 32.9021 66.4733 52.0729 66.4733C76.0142 66.4733 76.0142 52.2067 99.9554 52.2067C123.897 52.2067 123.941 66.4733 147.927 66.4733C167.098 66.4733 170.932 57.3337 183.95 53.6779M10.2983 133.883C28.1317 136.113 30.3608 147.793 52.0729 147.793C76.0142 147.793 76.0142 133.527 99.9554 133.527C123.897 133.527 123.941 147.793 147.927 147.793C169.639 147.793 171.69 136.068 189.702 133.883" stroke="#ADA3A3" stroke-width="1.5" stroke-linecap="round" stroke-linejoin="round"/>
<path d="M163.289 131.841V139.703H145.926V151.187C145.926 155.334 146.974 158.046 149.07 159.322C151.167 160.598 153.947 161.236 157.41 161.236H159.256V167.115H117.078V161.236H121.043C124.552 161.236 127.332 160.598 129.383 159.322C131.479 158.046 132.527 155.334 132.527 151.187V139.703H89.3926V133.961L132.664 67.1734H145.926V131.841H163.289ZM99.4414 131.841H132.527V105.933C132.527 103.609 132.55 100.647 132.596 97.0465C132.687 93.4006 132.801 89.7548 132.938 86.109C133.12 82.4176 133.302 79.3642 133.484 76.9488C133.029 77.8147 132.186 79.3414 130.955 81.5289C129.725 83.7164 128.654 85.6305 127.742 87.2711C127.286 88.0458 126.58 89.2307 125.623 90.8258C124.666 92.4208 123.732 93.9703 122.82 95.4742C121.909 96.9325 121.271 97.9352 120.906 98.482L99.4414 131.841Z" fill="#ACC7F0"/>
<path d="M34.4258 99.9121C34.4258 96.5397 34.9499 93.5775 35.998 91.0254C37.0918 88.4733 38.5957 86.2174 40.5098 84.2578C42.4238 82.2526 44.6797 80.4753 47.2773 78.9258C49.875 77.3307 52.7005 75.804 55.7539 74.3457C53.1107 72.8418 50.6725 71.224 48.4395 69.4922C46.2064 67.7148 44.2923 65.778 42.6973 63.6816C41.1022 61.5853 39.849 59.3066 38.9375 56.8457C38.0716 54.3392 37.6387 51.6276 37.6387 48.7109C37.6387 45.4753 38.2083 42.3535 39.3477 39.3457C40.487 36.3379 42.2643 33.6719 44.6797 31.3477C47.0951 29.0234 50.2168 27.1549 54.0449 25.7422C57.9186 24.3294 62.5443 23.623 67.9219 23.623C72.2969 23.623 76.1934 24.2383 79.6113 25.4688C83.0293 26.6536 85.9232 28.3171 88.293 30.459C93.0781 34.8796 95.4707 40.6445 95.4707 47.7539C95.4707 50.8073 95.015 53.4961 94.1035 55.8203C93.1921 58.099 91.916 60.1725 90.2754 62.041C88.6348 63.8639 86.6523 65.5273 84.3281 67.0312C82.0039 68.5352 79.429 69.9935 76.6035 71.4062C80.0671 73.0469 83.2116 74.8014 86.0371 76.6699C88.9082 78.5384 91.3691 80.5664 93.4199 82.7539C95.4707 84.9414 97.043 87.3112 98.1367 89.8633C99.276 92.4154 99.8457 95.2181 99.8457 98.2715C99.8457 102.692 99.0482 106.657 97.4531 110.166C95.8581 113.63 93.6022 116.569 90.6855 118.984C84.8066 123.906 76.6491 126.367 66.2129 126.367C60.972 126.367 56.3691 125.684 52.4043 124.316C48.485 122.904 45.181 121.012 42.4922 118.643C37.1146 113.812 34.4258 107.568 34.4258 99.9121ZM83.0293 47.4121C83.0293 42.7181 81.7533 38.6849 79.2012 35.3125C76.6491 31.9401 72.5931 30.2539 67.0332 30.2539C61.929 30.2539 57.9414 31.8262 55.0703 34.9707C52.2448 38.0697 50.832 42.0801 50.832 47.002C50.832 51.8327 52.4271 55.9115 55.6172 59.2383C57.2122 60.8789 59.1719 62.4284 61.4961 63.8867C63.8659 65.2995 66.6003 66.735 69.6992 68.1934C74.7578 65.6413 78.2441 62.8158 80.1582 59.7168C82.0723 56.6178 83.0293 52.5163 83.0293 47.4121ZM66.8965 119.941C69.9499 119.941 72.707 119.486 75.168 118.574C77.6745 117.617 79.8164 116.318 81.5938 114.678C85.2396 111.26 87.0625 106.816 87.0625 101.348C87.0625 96.6536 85.2168 92.4837 81.5254 88.8379C79.5658 86.9694 77.0137 85.1465 73.8691 83.3691C70.7702 81.5462 66.9648 79.6549 62.4531 77.6953C58.0326 80.0651 54.5234 83.1413 51.9258 86.9238C49.3281 90.7064 48.0293 95.2409 48.0293 100.527C48.0293 106.406 49.6243 111.077 52.8145 114.541C56.1413 118.141 60.8353 119.941 66.8965 119.941Z" fill="#ACC7F0"/>
</g>
<defs>
<linearGradient id="paint0_linear_2019_2" x1="5.58613e-07" y1="0.159143" x2="199" y2="199.841" gradientUnits="userSpaceOnUse">
<stop stop-color="#134E9B"/>
<stop offset="1" stop-color="#0A2447"/>
</linearGradient>
<clipPath id="clip0_2019_2">
<rect width="200" height="200" fill="white"/>
</clipPath>
</defs>
</svg>
